:FULLY-SPECIFIED
:FORCE-ALL-JOINTS-BE-3DOF
:DEGREES
408
root 2.82358 15.0122 -35.8558 222.176 94.4166 219.059
lfemur -8.59342 -7.31656 -18.9668
ltibia 58.2381 0 0
lfoot -27.4311 33.4923 0
ltoes -17.2575 0 0
rfemur -47.557 1.19242 7.61791
rtibia 28.45 0 0
rfoot 5.37889 -10.5318 0
rtoes 16.7794 0 0
lowerback 15.7649 -1.2171 -9.04617
upperback -0.217331 -2.83723 4.16608
thorax -8.43241 -0.862802 10.4273
lowerneck 1.26277 -11.4467 -11.7895
upperneck 3.42 -15.8389 10.6862
head 3.18386 -8.05976 4.50873
lclavicle 2.34835e-14 -1.58755e-14 0
lhumerus -42.0815 -40.2707 109.808
lradius 95.0879 0 0
lwrist 40.0493 0 0
lhand -10.1926 38.2156 0
lfingers 7.12502 0 0
lthumb 15.7924 67.7089 0
rclavicle 2.34835e-14 -1.58755e-14 0
rhumerus 39.116 17.8441 -45.8513
rradius 87.5862 0 0
rwrist -17.2694 0 0
rhand 9.41311 -25.8999 0
rfingers 7.12502 0 0
rthumb 37.9584 -57.2843 0
409
root 2.81434 15.0124 -35.8731 223.539 94.5438 220.355
lfemur -8.77607 -7.40657 -18.9932
ltibia 58.4345 0 0
lfoot -27.4072 33.5749 0
ltoes -17.3133 0 0
rfemur -47.5949 1.15379 7.78073
rtibia 28.4453 0 0
rfoot 5.0946 -10.7819 0
rtoes 16.698 0 0
lowerback 15.7814 -1.25332 -9.02865
upperback -0.200182 -2.87868 4.20532
thorax -8.41205 -0.884334 10.4707
lowerneck 1.36997 -11.5257 -11.874
upperneck 3.36499 -15.9597 10.8291
head 3.17605 -8.12093 4.56047
lclavicle 2.37452e-14 -1.59577e-14 0
lhumerus -41.8658 -40.4005 109.579
lradius 95.0102 0 0
lwrist 39.7563 0 0
lhand -10.0328 38.1952 0
lfingers 7.12502 0 0
lthumb 15.9464 67.6815 0
rclavicle 2.37452e-14 -1.59577e-14 0
rhumerus 39.0399 17.9366 -45.5212
rradius 88.2573 0 0
rwrist -17.6931 0 0
rhand 9.88211 -25.789 0
rfingers 7.12502 0 0
rthumb 38.3287 -56.942 0
410
root 2.80481 15.0126 -35.8906 224.901 94.6651 221.65
lfemur -8.95765 -7.49564 -19.019
ltibia 58.63 0 0
lfoot -27.3832 33.6569 0
ltoes -17.3691 0 0
rfemur -47.633 1.11437 7.94306
rtibia 28.4423 0 0
rfoot 4.81087 -11.0302 0
rtoes 16.6163 0 0
lowerback 15.7979 -1.28929 -9.0112
upperback -0.183068 -2.91984 4.2443
thorax -8.39181 -0.905726 10.5138
lowerneck 1.47665 -11.6042 -11.9581
upperneck 3.31033 -16.08 10.9714
head 3.1683 -8.18179 4.61198
lclavicle 2.40048e-14 -1.60388e-14 0
lhumerus -41.6512 -40.5291 109.351
lradius 94.9325 0 0
lwrist 39.4647 0 0
lhand -9.87509 38.1751 0
lfingers 7.12502 0 0
lthumb 16.0985 67.6543 0
rclavicle 2.40048e-14 -1.60388e-14 0
rhumerus 38.9625 18.0284 -45.1929
rradius 88.9253 0 0
rwrist -18.1156 0 0
rhand 10.3497 -25.678 0
rfingers 7.12502 0 0
rthumb 38.6966 -56.5981 0
411
root 2.79498 15.0128 -35.9082 226.259 94.7802 222.943
lfemur -9.13809 -7.58373 -19.0442
ltibia 58.8246 0 0
lfoot -27.3589 33.7382 0
ltoes -17.4249 0 0
rfemur -47.6712 1.07415 8.10484
rtibia 28.4409 0 0
rfoot 4.52779 -11.2766 0
rtoes 16.5343 0 0
lowerback 15.8145 -1.32499 -8.99383
upperback -0.165992 -2.96069 4.28299
thorax -8.3717 -0.926969 10.5566
lowerneck 1.58278 -11.6824 -12.0418
upperneck 3.25602 -16.1995 11.113
head 3.1606 -8.24232 4.66326
lclavicle 2.42625e-14 -1.61187e-14 0
lhumerus -41.4378 -40.6566 109.122
lradius 94.8548 0 0
lwrist 39.1747 0 0
lhand -9.71952 38.1551 0
lfingers 7.12502 0 0
lthumb 16.2485 67.6273 0
rclavicle 2.42625e-14 -1.61187e-14 0
rhumerus 38.884 18.1194 -44.8663
rradius 89.5899 0 0
rwrist -18.5368 0 0
rhand 10.8155 -25.5669 0
rfingers 7.12502 0 0
rthumb 39.062 -56.2529 0
412
root 2.78485 15.0129 -35.926 227.614 94.8891 224.236
lfemur -9.31731 -7.67081 -19.0689
ltibia 59.018 0 0
lfoot -27.3345 33.8187 0
ltoes -17.4806 0 0
rfemur -47.7095 1.03313 8.266
rtibia 28.4412 0 0
rfoot 4.24546 -11.521 0
rtoes 16.452 0 0
lowerback 15.831 -1.36041 -8.97654
upperback -0.14896 -3.00123 4.32137
thorax -8.35172 -0.948054 10.599
lowerneck 1.68832 -11.7601 -12.1252
upperneck 3.2021 -16.3184 11.2539
head 3.15296 -8.30251 4.71428
lclavicle 2.4518e-14 -1.61976e-14 0
lhumerus -41.2257 -40.7827 108.894
lradius 94.7773 0 0
lwrist 38.8865 0 0
lhand -9.56618 38.1354 0
lfingers 7.12502 0 0
lthumb 16.3963 67.6005 0
rclavicle 2.4518e-14 -1.61976e-14 0
rhumerus 38.8044 18.2097 -44.5417
rradius 90.2509 0 0
rwrist -18.9564 0 0
rhand 11.2794 -25.4558 0
rfingers 7.12502 0 0
rthumb 39.4248 -55.9065 0
413
root 2.77442 15.0131 -35.9439 228.966 94.9915 225.526
lfemur -9.49524 -7.75684 -19.093
ltibia 59.2104 0 0
lfoot -27.3099 33.8986 0
ltoes -17.5364 0 0
rfemur -47.748 0.991289 8.42651
rtibia 28.4432 0 0
rfoot 3.96395 -11.7632 0
rtoes 16.3694 0 0
lowerback 15.8475 -1.39554 -8.95934
upperback -0.131976 -3.04143 4.35945
thorax -8.33187 -0.968972 10.641
lowerneck 1.79323 -11.8374 -12.2082
upperneck 3.14858 -16.4367 11.3941
head 3.14538 -8.36234 4.76503
lclavicle 2.47713e-14 -1.62752e-14 0
lhumerus -41.015 -40.9075 108.667
lradius 94.7 0 0
lwrist 38.6002 0 0
lhand -9.41515 38.1159 0
lfingers 7.12502 0 0
lthumb 16.5419 67.574 0
rclavicle 2.47713e-14 -1.62752e-14 0
rhumerus 38.7236 18.2992 -44.2191
rradius 90.9079 0 0
rwrist -19.3743 0 0
rhand 11.741 -25.3447 0
rfingers 7.12502 0 0
rthumb 39.7847 -55.5593 0
414
root 2.76368 15.0132 -35.962 230.314 95.0873 226.815
lfemur -9.67182 -7.84178 -19.1164
ltibia 59.4015 0 0
lfoot -27.2851 33.9777 0
ltoes -17.5921 0 0
rfemur -47.7865 0.948631 8.58628
rtibia 28.4469 0 0
rfoot 3.68336 -12.0033 0
rtoes 16.2867 0 0
lowerback 15.8641 -1.43035 -8.94224
upperback -0.115044 -3.08128 4.39719
thorax -8.31217 -0.989715 10.6826
lowerneck 1.89749 -11.9142 -12.2907
upperneck 3.09549 -16.5541 11.5335
head 3.13787 -8.42179 4.8155
lclavicle 2.50223e-14 -1.63518e-14 0
lhumerus -40.8059 -41.0309 108.44
lradius 94.6229 0 0
lwrist 38.3161 0 0
lhand -9.26651 38.0966 0
lfingers 7.12502 0 0
lthumb 16.6852 67.5477 0
rclavicle 2.50223e-14 -1.63518e-14 0
rhumerus 38.6417 18.3877 -43.8986
rradius 91.5607 0 0
rwrist -19.7903 0 0
rhand 12.2001 -25.2335 0
rfingers 7.12502 0 0
rthumb 40.1415 -55.2113 0
415
root 2.75262 15.0133 -35.9802 231.658 95.1762 228.102
lfemur -9.84696 -7.9256 -19.1393
ltibia 59.5914 0 0
lfoot -27.2602 34.056 0
ltoes -17.6478 0 0
rfemur -47.8252 0.905149 8.74528
rtibia 28.4523 0 0
rfoot 3.40378 -12.2411 0
rtoes 16.2038 0 0
lowerback 15.8806 -1.46484 -8.92524
upperback -0.0981693 -3.12075 4.43458
thorax -8.29263 -1.01027 10.7239
lowerneck 2.00106 -11.9904 -12.3728
upperneck 3.04284 -16.6709 11.6721
head 3.13044 -8.48085 4.86567
lclavicle 2.5271e-14 -1.64271e-14 0
lhumerus -40.5985 -41.1527 108.213
lradius 94.5462 0 0
lwrist 38.0343 0 0
lhand -9.12035 38.0775 0
lfingers 7.12502 0 0
lthumb 16.8262 67.5216 0
rclavicle 2.5271e-14 -1.64271e-14 0
rhumerus 38.5587 18.4754 -43.5803
rradius 92.2089 0 0
rwrist -20.2042 0 0
rhand 12.6564 -25.1224 0
rfingers 7.12502 0 0
rthumb 40.4951 -54.8628 0
416
root 2.74125 15.0133 -35.9985 232.998 95.258 229.387
lfemur -10.0206 -8.00825 -19.1614
ltibia 59.7799 0 0
lfoot -27.2351 34.1335 0
ltoes -17.7035 0 0
rfemur -47.8639 0.860836 8.90344
rtibia 28.4595 0 0
rfoot 3.12529 -12.4765 0
rtoes 16.1209 0 0
lowerback 15.8972 -1.49898 -8.90834
upperback -0.0813565 -3.15984 4.47161
thorax -8.27324 -1.03064 10.7646
lowerneck 2.1039 -12.0662 -12.4544
upperneck 2.99065 -16.7868 11.8098
head 3.12308 -8.5395 4.91553
lclavicle 2.55173e-14 -1.65011e-14 0
lhumerus -40.393 -41.2729 107.987
lradius 94.4699 0 0
lwrist 37.755 0 0
lhand -8.97674 38.0587 0
lfingers 7.12502 0 0
lthumb 16.9646 67.4957 0
rclavicle 2.55173e-14 -1.65011e-14 0
rhumerus 38.4747 18.5621 -43.2644
rradius 92.8523 0 0
rwrist -20.6159 0 0
rhand 13.1097 -25.0114 0
rfingers 7.12502 0 0
rthumb 40.8454 -54.514 0
417
root 2.72956 15.0134 -36.017 234.333 95.3327 230.669
lfemur -10.1927 -8.08971 -19.1829
ltibia 59.9671 0 0
lfoot -27.2098 34.2102 0
ltoes -17.7591 0 0
rfemur -47.9027 0.815688 9.0607
rtibia 28.4684 0 0
rfoot 2.84799 -12.7094 0
rtoes 16.0378 0 0
lowerback 15.9137 -1.53276 -8.89155
upperback -0.06461 -3.19851 4.50827
thorax -8.25402 -1.0508 10.805
lowerneck 2.20598 -12.1414 -12.5355
upperneck 2.93894 -16.9019 11.9466
head 3.11579 -8.59773 4.96506
lclavicle 2.57611e-14 -1.6574e-14 0
lhumerus -40.1894 -41.3915 107.762
lradius 94.394 0 0
lwrist 37.4783 0 0
lhand -8.83576 38.04 0
lfingers 7.12502 0 0
lthumb 17.1005 67.4701 0
rclavicle 2.57611e-14 -1.6574e-14 0
rhumerus 38.3896 18.6478 -42.951
rradius 93.4906 0 0
rwrist -21.0252 0 0
rhand 13.5597 -24.9004 0
rfingers 7.12502 0 0
rthumb 41.192 -54.165 0
418
root 2.71754 15.0134 -36.0357 235.664 95.3999 231.949
lfemur -10.3631 -8.16993 -19.2037
ltibia 60.1528 0 0
lfoot -27.1844 34.286 0
ltoes -17.8147 0 0
rfemur -47.9416 0.769697 9.21701
rtibia 28.4791 0 0
rfoot 2.57195 -12.9398 0
rtoes 15.9548 0 0
lowerback 15.9302 -1.56618 -8.87488
upperback -0.0479347 -3.23676 4.54453
thorax -8.23497 -1.07076 10.8448
lowerneck 2.30726 -12.216 -12.6161
upperneck 2.88773 -17.0161 12.0825
head 3.10859 -8.65551 5.01424
lclavicle 2.60024e-14 -1.66455e-14 0
lhumerus -39.9879 -41.5083 107.538
lradius 94.3187 0 0
lwrist 37.2045 0 0
lhand -8.69751 38.0217 0
lfingers 7.12502 0 0
lthumb 17.2338 67.4447 0
rclavicle 2.60024e-14 -1.66455e-14 0
rhumerus 38.3034 18.7323 -42.6401
rradius 94.1235 0 0
rwrist -21.4318 0 0
rhand 14.0062 -24.7895 0
rfingers 7.12502 0 0
rthumb 41.5349 -53.8162 0
419
root 2.70519 15.0135 -36.0545 236.99 95.4596 233.225
lfemur -10.5318 -8.24887 -19.2238
ltibia 60.3369 0 0
lfoot -27.1588 34.3608 0
ltoes -17.8703 0 0
rfemur -47.9805 0.722858 9.37231
rtibia 28.4916 0 0
rfoot 2.29728 -13.1675 0
rtoes 15.8717 0 0
lowerback 15.9467 -1.5992 -8.85832
upperback -0.0313349 -3.27456 4.58039
thorax -8.2161 -1.09049 10.8842
lowerneck 2.40772 -12.29 -12.6961
upperneck 2.83705 -17.1294 12.2173
head 3.10147 -8.71282 5.06306
lclavicle 2.6241e-14 -1.67158e-14 0
lhumerus -39.7887 -41.6233 107.314
lradius 94.244 0 0
lwrist 36.9337 0 0
lhand -8.56205 38.0036 0
lfingers 7.12502 0 0
lthumb 17.3644 67.4196 0
rclavicle 2.6241e-14 -1.67158e-14 0
rhumerus 38.2162 18.8158 -42.3319
rradius 94.7507 0 0
rwrist -21.8357 0 0
rhand 14.4488 -24.6787 0
rfingers 7.12502 0 0
rthumb 41.8739 -53.4677 0
420
root 2.6925 15.0135 -36.0734 238.31 95.5114 234.499
lfemur -10.6988 -8.32651 -19.2431
ltibia 60.5195 0 0
lfoot -27.133 34.4347 0
ltoes -17.9258 0 0
rfemur -48.0195 0.675166 9.52655
rtibia 28.5059 0 0
rfoot 2.02406 -13.3925 0
rtoes 15.7887 0 0
lowerback 15.9631 -1.63183 -8.84189
upperback -0.0148155 -3.31191 4.61582
thorax -8.19741 -1.10999 10.923
lowerneck 2.5073 -12.3634 -12.7756
upperneck 2.78691 -17.2418 12.3511
head 3.09445 -8.76967 5.11151
lclavicle 2.6477e-14 -1.67848e-14 0
lhumerus -39.5918 -41.7364 107.092
lradius 94.1699 0 0
lwrist 36.6661 0 0
lhand -8.42946 37.9857 0
lfingers 7.12502 0 0
lthumb 17.4923 67.3947 0
rclavicle 2.6477e-14 -1.67848e-14 0
rhumerus 38.1281 18.8981 -42.0265
rradius 95.3719 0 0
rwrist -22.2367 0 0
rhand 14.8873 -24.5681 0
rfingers 7.12502 0 0
rthumb 42.2088 -53.1197 0
421
root 2.67948 15.0134 -36.0925 239.626 95.5553 235.77
lfemur -10.8638 -8.40279 -19.2617
ltibia 60.7004 0 0
lfoot -27.1071 34.5077 0
ltoes -17.9812 0 0
rfemur -48.0585 0.626613 9.67965
rtibia 28.5221 0 0
rfoot 1.75237 -13.6146 0
rtoes 15.7058 0 0
lowerback 15.9795 -1.66403 -8.82559
upperback 0.001619 -3.34877 4.65082
thorax -8.17891 -1.12926 10.9614
lowerneck 2.60599 -12.4362 -12.8545
upperneck 2.73733 -17.3532 12.4838
head 3.08751 -8.82601 5.15957
lclavicle 2.67101e-14 -1.68524e-14 0
lhumerus -39.3975 -41.8476 106.87
lradius 94.0965 0 0
lwrist 36.4019 0 0
lhand -8.29984 37.9681 0
lfingers 7.12502 0 0
lthumb 17.6172 67.3701 0
rclavicle 2.67101e-14 -1.68524e-14 0
rhumerus 38.0389 18.9792 -41.724
rradius 95.9869 0 0
rwrist -22.6344 0 0
rhand 15.3214 -24.4576 0
rfingers 7.12502 0 0
rthumb 42.5394 -52.7725 0
